#!OML:ASF H:\Not Pregnant\Project 1\Capture day 1\Session 1\non-pregnant.ASF
:FULLY-SPECIFIED
:DEGREES
2494
root -6.52826 15.9178 22.6408 1088.68 -193.881 0.879334
lowerback -4.25668 3.95095 3.05778
upperback -7.40749 5.79665 -2.38845
thorax -4.7797 2.93501 -4.18223
lowerneck 17.4118 -9.80328 -32.4586
upperneck 8.30997 -18.8266 37.1178
head 7.01569 -10.0973 19.4603
rclavicle 9.54166e-015 1.90833e-014
rhumerus -41.4516 -17.1262 -78.1938
rradius 18.9675
rwrist 38.6352
rhand 0.358955 0.607589
rfingers 7.12502
rthumb 25.9341 -27.6433
lclavicle 9.54166e-015 1.90833e-014
lhumerus -49.3987 0.313716 79.7396
lradius 32.7884
lwrist 37.1055
lhand -13.5836 -8.0503
lfingers 7.12502
lthumb 12.5306 21.554
rfemur -0.497594 0.662756 21.9496
rtibia 38.7441
rfoot 12.6305 23.5973
rtoes -12.2886
lfemur -37.1756 1.62089 -23.5445
ltibia 35.3859
lfoot -7.90657 -7.87093
ltoes -9.63744
2495
root -6.51743 15.9329 22.529 1088.57 -194.021 0.623551
lowerback -4.14273 3.9602 2.86318
upperback -7.42056 5.81153 -2.46188
thorax -4.86579 2.94779 -4.16189
lowerneck 17.3114 -9.74465 -32.4643
upperneck 8.32457 -18.7218 37.1225
head 6.99335 -10.036 19.4787
rclavicle -8.41853e-014 -1.23246e-014
rhumerus -41.4894 -16.7178 -78.2142
rradius 19.0791
rwrist 38.381
rhand 0.404027 0.673737
rfingers 7.12502
rthumb 25.9773 -27.5708
lclavicle -8.41853e-014 -1.23246e-014
lhumerus -49.2456 -0.012008 80.0603
lradius 33.1581
lwrist 37.1154
lhand -13.768 -7.98079
lfingers 7.12502
lthumb 12.3528 21.6343
rfemur -1.55941 0.507724 21.4015
rtibia 40.5437
rfoot 13.7657 23.7543
rtoes -13.6358
lfemur -36.5634 1.95383 -23.9545
ltibia 35.2321
lfoot -8.3452 -8.01568
ltoes -9.51784
2496
root -6.50682 15.9479 22.4215 1088.45 -194.161 0.356594
lowerback -4.00688 3.9615 2.65638
upperback -7.4298 5.81476 -2.53474
thorax -4.96248 2.95486 -4.13625
lowerneck 17.2057 -9.67336 -32.4669
upperneck 8.33696 -18.5967 37.1274
head 6.96173 -9.96437 19.4996
rclavicle 3.49861e-014 3.4191e-014
rhumerus -41.4746 -16.2702 -78.2822
rradius 19.2097
rwrist 38.0294
rhand 0.347881 0.727609
rfingers 7.12502
rthumb 25.9235 -27.5248
lclavicle 3.49861e-014 3.4191e-014
lhumerus -49.0745 -0.317991 80.3664
lradius 33.5473
lwrist 37.1627
lhand -13.9403 -7.94884
lfingers 7.12502
lthumb 12.1866 21.6762
rfemur -2.67685 0.388369 20.8644
rtibia 42.372
rfoot 14.1669 23.9636
rtoes -15.5428
lfemur -35.9541 2.24542 -24.3512
ltibia 35.0446
lfoot -8.68523 -8.13863
ltoes -9.42588
2497
root -6.49599 15.9621 22.3189 1088.32 -194.282 0.0647334
lowerback -3.84842 3.94887 2.42426
upperback -7.43005 5.79752 -2.61319
thorax -5.0659 2.95235 -4.1042
lowerneck 17.0889 -9.59629 -32.4741
upperneck 8.33827 -18.4617 37.1467
head 6.9273 -9.88807 19.5306
rclavicle 6.70898e-014 1.07344e-014
rhumerus -41.4069 -15.7927 -78.3999
rradius 19.3608
rwrist 37.591
rhand 0.186552 0.75974
rfingers 7.12502
rthumb 25.769 -27.5152
lclavicle 6.70898e-014 1.07344e-014
lhumerus -48.8633 -0.600423 80.6421
lradius 33.9357
lwrist 37.2909
lhand -14.0673 -7.97881
lfingers 7.12502
lthumb 12.0642 21.6534
rfemur -3.83959 0.27711 20.3326
rtibia 44.2277
rfoot 13.7599 24.1967
rtoes -17.6298
lfemur -35.3462 2.50367 -24.7567
ltibia 34.823
lfoot -8.97706 -8.26734
ltoes -9.34022
2498
root -6.48494 15.975 22.2206 1088.17 -194.366 -0.26606
lowerback -3.64427 3.919 2.1464
upperback -7.42199 5.75522 -2.69824
thorax -5.19185 2.93854 -4.05751
lowerneck 16.9502 -9.52704 -32.4748
upperneck 8.33 -18.332 37.1699
head 6.89599 -9.81279 19.5584
rclavicle -2.9122e-014 -1.35174e-014
rhumerus -41.2955 -15.3005 -78.5498
rradius 19.5325
rwrist 37.0865
rhand -0.0540655 0.754068
rfingers 7.12502
rthumb 25.5386 -27.5541
lclavicle -2.9122e-014 -1.35174e-014
lhumerus -48.6034 -0.853182 80.8801
lradius 34.2908
lwrist 37.5075
lhand -14.0835 -8.1342
lfingers 7.12502
lthumb 12.0486 21.499
rfemur -5.03725 0.131013 19.7962
rtibia 46.1015
rfoot 12.6153 24.3566
rtoes -19.5375
lfemur -34.7295 2.718 -25.188
ltibia 34.5721
lfoot -9.2381 -8.41141
ltoes -9.21382
2499
root -6.47356 15.9862 22.1263 1088 -194.401 -0.64173
lowerback -3.42192 3.86766 1.82733
upperback -7.39808 5.68097 -2.79349
thorax -5.31641 2.91046 -3.99914
lowerneck 16.8052 -9.45479 -32.4765
upperneck 8.31081 -18.1964 37.2013
head 6.86129 -9.73494 19.5909
rclavicle -5.81445e-014 2.34566e-014
rhumerus -41.1332 -14.8199 -78.7173
rradius 19.7054
rwrist 36.555
rhand -0.380667 0.709282
rfingers 7.12502
rthumb 25.2257 -27.6434
lclavicle -5.81445e-014 2.34566e-014
lhumerus -48.303 -1.09576 81.1036
lradius 34.6334
lwrist 37.7378
lhand -14.1183 -8.32182
lfingers 7.12502
lthumb 12.015 21.3133
rfemur -6.26632 -0.0755295 19.2509
rtibia 47.9794
rfoot 10.8499 24.3315
rtoes -21.1308
lfemur -34.1051 2.89349 -25.6573
ltibia 34.3012
lfoot -9.49067 -8.58046
ltoes -9.05844
2500
root -6.46179 15.9949 22.0354 1087.8 -194.383 -1.06117
lowerback -3.16786 3.79929 1.46244
upperback -7.36221 5.5808 -2.90016
thorax -5.45092 2.87128 -3.92886
lowerneck 16.643 -9.39122 -32.4664
upperneck 8.29166 -18.0671 37.233
head 6.83114 -9.65795 19.6182
rclavicle 7.25564e-015 -1.59028e-015
rhumerus -40.9312 -14.3826 -78.8801
rradius 19.8789
rwrist 36.0175
rhand -0.791365 0.627143
rfingers 7.12502
rthumb 24.8322 -27.7803
lclavicle 7.25564e-015 -1.59028e-015
lhumerus -47.963 -1.3415 81.3153
lradius 34.9767
lwrist 37.9662
lhand -14.181 -8.45441
lfingers 7.12502
lthumb 11.9546 21.1842
rfemur -7.52016 -0.357349 18.695
rtibia 49.8418
rfoot 8.6317 24.0358
rtoes -22.4181
lfemur -33.4787 3.02619 -26.1647
ltibia 34.0258
lfoot -9.7446 -8.76997
ltoes -8.86297
2501
root -6.44985 16.0007 21.9471 1087.58 -194.316 -1.51133
lowerback -2.89242 3.71675 1.06495
upperback -7.32096 5.45916 -3.01012
thorax -5.59567 2.82322 -3.84474
lowerneck 16.486 -9.32536 -32.4591
upperneck 8.27379 -17.9358 37.2633
head 6.79974 -9.58053 19.6461
rclavicle -4.58199e-014 2.62396e-014
rhumerus -40.7038 -14.0211 -78.9965
rradius 20.0241
rwrist 35.5378
rhand -1.3043 0.551814
rfingers 7.12502
rthumb 24.3405 -27.9226
lclavicle -4.58199e-014 2.62396e-014
lhumerus -47.5995 -1.57119 81.5123
lradius 35.2965
lwrist 38.1348
lhand -14.2445 -8.58927
lfingers 7.12502
lthumb 11.8934 21.0529
rfemur -8.79804 -0.720903 18.1356
rtibia 51.6673
rfoot 6.15013 23.4265
rtoes -23.5287
lfemur -32.8557 3.11839 -26.6998
ltibia 33.7649
lfoot -10.0206 -8.96406
ltoes -8.6705
2502
root -6.4376 16.0036 21.8608 1087.36 -194.209 -1.96834
lowerback -2.61021 3.62336 0.656346
upperback -7.2747 5.32056 -3.11364
thorax -5.74117 2.76793 -3.74691
lowerneck 16.3438 -9.24896 -32.4644
upperneck 8.26264 -17.7953 37.2893
head 6.76444 -9.50049 19.6778
rclavicle -1.83876e-014 2.46493e-014
rhumerus -40.4659 -13.7132 -79.075
rradius 20.1749
rwrist 35.0918
rhand -1.87975 0.452694
rfingers 7.12502
rthumb 23.7887 -28.0946
lclavicle -1.83876e-014 2.46493e-014
lhumerus -47.2333 -1.78022 81.6988
lradius 35.6285
lwrist 38.2649
lhand -14.3205 -8.65981
lfingers 7.12502
lthumb 11.82 20.9866
rfemur -10.0903 -1.14353 17.594
rtibia 53.4293
rfoot 3.58932 22.4934
rtoes -24.5737
lfemur -32.2486 3.17983 -27.2381
ltibia 33.5372
lfoot -10.2999 -9.15644
ltoes -8.475
2503
root -6.42491 16.0038 21.7765 1087.14 -194.058 -2.39451
lowerback -2.32635 3.52158 0.272047
upperback -7.23124 5.16935 -3.20223
thorax -5.8901 2.70601 -3.64603
lowerneck 16.2222 -9.16381 -32.4856
upperneck 8.25962 -17.6501 37.3134
head 6.7274 -9.42048 19.7154
rclavicle 3.23025e-014 3.49861e-014
rhumerus -40.224 -13.4586 -79.1169
rradius 20.3247
rwrist 34.6731
rhand -2.52345 0.359003
rfingers 7.12502
rthumb 23.1713 -28.2673
lclavicle 3.23025e-014 3.49861e-014
lhumerus -46.8616 -1.96584 81.8693
lradius 35.9546
lwrist 38.3588
lhand -14.3968 -8.68099
lfingers 7.12502
lthumb 11.7465 20.9696
rfemur -11.3972 -1.61522 17.1092
rtibia 55.1039
rfoot 1.10287 21.2908
rtoes -25.5357
lfemur -31.677 3.21617 -27.7411
ltibia 33.3614
lfoot -10.5928 -9.34366
ltoes -8.31677
2504
root -6.4114 16.0028 21.6941 1086.95 -193.873 -2.76004
lowerback -2.06418 3.41648 -0.0604543
upperback -7.18286 5.01243 -3.26935
thorax -6.01859 2.63953 -3.54784
lowerneck 16.1077 -9.07707 -32.5116
upperneck 8.26267 -17.5059 37.3245
head 6.68978 -9.34216 19.7465
rclavicle 4.85532e-014 2.74323e-014
rhumerus -39.9652 -13.233 -79.1492
rradius 20.5002
rwrist 34.2257
rhand -3.18967 0.237645
rfingers 7.12502
rthumb 22.5319 -28.4676
lclavicle 4.85532e-014 2.74323e-014
lhumerus -46.4678 -2.13346 82.027
lradius 36.2459
lwrist 38.4424
lhand -14.443 -8.78186
lfingers 7.12502
lthumb 11.7019 20.8713
rfemur -12.7153 -2.10961 16.7142
rtibia 56.6621
rfoot -1.19147 19.9093
rtoes -26.3128
lfemur -31.1542 3.22566 -28.173
ltibia 33.2469
lfoot -10.8982 -9.51421
ltoes -8.25226
2505
root -6.39676 16.0012 21.6142 1086.79 -193.652 -3.02698
lowerback -1.84283 3.30633 -0.305354
upperback -7.1273 4.84884 -3.30503
thorax -6.11123 2.56604 -3.46
lowerneck 15.9953 -8.98823 -32.5475
upperneck 8.25966 -17.3617 37.3348
head 6.6508 -9.26545 19.7786
rclavicle 5.62064e-014 -1.74931e-014
rhumerus -39.6763 -13.031 -79.1817
rradius 20.7019
rwrist 33.7368
rhand -3.8453 0.057144
rfingers 7.12502
rthumb 21.9025 -28.7231
lclavicle 5.62064e-014 -1.74931e-014
lhumerus -46.0382 -2.26895 82.1628
lradius 36.4947
lwrist 38.5224
lhand -14.4558 -8.99079
lfingers 7.12502
lthumb 11.6895 20.6631
rfemur -14.0447 -2.59289 16.4564
rtibia 58.0814
rfoot -3.26304 18.4337
rtoes -26.7969
lfemur -30.7002 3.21015 -28.4924
ltibia 33.1981
lfoot -11.2098 -9.66951
ltoes -8.19502
2506
root -6.38155 15.9994 21.5351 1086.67 -193.404 -3.20237
lowerback -1.64455 3.2016 -0.463462
upperback -7.06712 4.69295 -3.31667
thorax -6.17978 2.4921 -3.39199
lowerneck 15.878 -8.91436 -32.5778
upperneck 8.26128 -17.2379 37.3309
head 6.62035 -9.19832 19.7962
rclavicle -2.46493e-014 2.18663e-014
rhumerus -39.378 -12.8561 -79.2135
rradius 20.9388
rwrist 33.1992
rhand -4.48599 -0.165578
rfingers 7.12502
rthumb 21.2872 -29.0165
lclavicle -2.46493e-014 2.18663e-014
lhumerus -45.5719 -2.4016 82.2902
lradius 36.7031
lwrist 38.6042
lhand -14.453 -9.25412
lfingers 7.12502
lthumb 11.6923 20.3996
rfemur -15.3555 -3.05366 16.321
rtibia 59.3393
rfoot -5.10934 16.9437
rtoes -26.9908
lfemur -30.2844 3.16269 -28.7079
ltibia 33.2067
lfoot -11.5422 -9.7871
ltoes -8.26515
